<svg width="78" height="78" viewBox="0 0 78 78" fill="none" xmlns="http://www.w3.org/2000/svg">
<g filter="url(#filter0_d_1_196)">
<circle cx="38.6179" cy="29.26" r="16.7973" fill="#FCFFFE"/>
</g>
<path d="M38.2091 9.0083C26.8736 9.0083 17.6846 18.1973 17.6846 29.5328C17.6846 40.8684 26.8736 50.0574 38.2091 50.0574C49.5446 50.0574 58.7336 40.8684 58.7336 29.5328C58.7336 18.1973 49.5446 9.0083 38.2091 9.0083ZM33.1849 38.0398H29.0287V24.6647H33.1849V38.0398ZM31.0811 23.0227C29.7684 23.0227 28.9196 22.0927 28.9196 20.9425C28.9196 19.7687 29.794 18.8665 31.1346 18.8665C32.4751 18.8665 33.296 19.7687 33.3217 20.9425C33.3217 22.0927 32.4751 23.0227 31.0811 23.0227ZM48.3645 38.0398H44.2083V30.6275C44.2083 28.9021 43.6053 27.7305 42.1024 27.7305C40.9543 27.7305 40.2722 28.5237 39.9708 29.287C39.8596 29.5585 39.8318 29.9433 39.8318 30.326V38.0377H35.6735V28.9299C35.6735 27.2602 35.62 25.8641 35.5644 24.6625H39.1755L39.3657 26.5204H39.4491C39.9965 25.6481 41.337 24.3611 43.5797 24.3611C46.3142 24.3611 48.3645 26.1933 48.3645 30.1315V38.0398Z" fill="url(#paint0_linear_1_196)"/>
<defs>
<filter id="filter0_d_1_196" x="0.213709" y="0.458842" width="76.8083" height="76.8083" filterUnits="userSpaceOnUse" color-interpolation-filters="sRGB">
<feFlood flood-opacity="0" result="BackgroundImageFix"/>
<feColorMatrix in="SourceAlpha" type="matrix" values="0 0 0 0 0 0 0 0 0 0 0 0 0 0 0 0 0 0 127 0" result="hardAlpha"/>
<feOffset dy="9.60304"/>
<feGaussianBlur stdDeviation="10.8034"/>
<feComposite in2="hardAlpha" operator="out"/>
<feColorMatrix type="matrix" values="0 0 0 0 0.0509804 0 0 0 0 0.85098 0 0 0 0 0.545098 0 0 0 1 0"/>
<feBlend mode="normal" in2="BackgroundImageFix" result="effect1_dropShadow_1_196"/>
<feBlend mode="normal" in="SourceGraphic" in2="effect1_dropShadow_1_196" result="shape"/>
</filter>
<linearGradient id="paint0_linear_1_196" x1="38.2091" y1="9.0083" x2="38.2091" y2="50.0574" gradientUnits="userSpaceOnUse">
<stop stop-color="#0CD8AE"/>
<stop offset="1" stop-color="#0CD845"/>
</linearGradient>
</defs>
</svg>
