<svg width="28" height="27" viewBox="0 0 28 27" fill="none" xmlns="http://www.w3.org/2000/svg">
<rect x="0.890137" y="0.0297852" width="26.9401" height="26.9401" rx="13.47" fill="url(#paint0_linear_1_437)"/>
<path d="M15.9964 10.2744H13.2183V20.1037H16.2099V15.342C16.2099 13.7464 16.7974 12.7308 18.2101 12.7308C19.2284 12.7308 19.6298 13.6727 19.6298 15.342V20.1037H22.6204V14.6743C22.6204 11.7433 21.9197 10.1458 18.9645 10.1458C17.423 10.1458 16.3972 10.8676 15.9964 11.6696V10.2744Z" fill="#FCFFFE"/>
<path d="M11.0808 19.9759H8.08908V10.1458H11.0808V19.9759Z" fill="#FCFFFE"/>
<path d="M11.3748 7.68876C11.4687 7.45048 11.5143 7.19576 11.5089 6.93964C11.4976 6.43684 11.29 5.95836 10.9305 5.6067C10.5711 5.25501 10.0882 5.05811 9.58545 5.05811C9.08219 5.05811 8.59932 5.25501 8.23985 5.6067C7.88037 5.95836 7.67327 6.43684 7.66201 6.93964C7.6561 7.19576 7.70171 7.45048 7.79614 7.68876C7.89003 7.92705 8.03114 8.14414 8.21034 8.32729C8.32354 8.44328 8.45124 8.54422 8.58912 8.62785C8.66907 8.67627 8.75276 8.71892 8.83915 8.75534C9.07575 8.85467 9.32899 8.90584 9.58545 8.90584C9.84138 8.90584 10.0952 8.85467 10.3312 8.75534C10.5673 8.65598 10.7814 8.51045 10.9606 8.32729C11.0749 8.21053 11.1736 8.07999 11.2541 7.93895C11.3002 7.85874 11.3404 7.77514 11.3748 7.68876Z" fill="#FCFFFE"/>
<defs>
<linearGradient id="paint0_linear_1_437" x1="14.3602" y1="0.0297852" x2="14.3602" y2="26.9699" gradientUnits="userSpaceOnUse">
<stop stop-color="#0CD8AE"/>
<stop offset="1" stop-color="#0CD845"/>
</linearGradient>
</defs>
</svg>
