<svg width="28" height="27" viewBox="0 0 28 27" fill="none" xmlns="http://www.w3.org/2000/svg">
<rect x="0.190796" y="0.0297852" width="26.9401" height="26.9401" rx="13.47" fill="url(#paint0_linear_1_439)"/>
<path d="M13.6605 5.72705C15.7233 5.72705 15.9807 5.73464 16.79 5.7726C17.5985 5.81056 18.149 5.93735 18.6333 6.12563C19.1344 6.31847 19.5565 6.57964 19.9786 7.001C20.3647 7.38052 20.6634 7.83961 20.854 8.34631C21.0415 8.82992 21.1691 9.3811 21.207 10.1897C21.2427 10.999 21.2526 11.2563 21.2526 13.3191C21.2526 15.3819 21.245 15.6392 21.207 16.4485C21.1691 17.2571 21.0415 17.8075 20.854 18.2919C20.664 18.7989 20.3652 19.2581 19.9786 19.6372C19.599 20.0231 19.1399 20.3218 18.6333 20.5126C18.1497 20.7001 17.5985 20.8276 16.79 20.8656C15.9807 20.9013 15.7233 20.9111 13.6605 20.9111C11.5978 20.9111 11.3404 20.9036 10.5311 20.8656C9.72253 20.8276 9.17211 20.7001 8.68774 20.5126C8.18084 20.3224 7.72167 20.0236 7.34243 19.6372C6.9563 19.2577 6.65757 18.7986 6.46706 18.2919C6.27878 17.8083 6.15199 17.2571 6.11403 16.4485C6.07835 15.6392 6.06848 15.3819 6.06848 13.3191C6.06848 11.2563 6.07607 10.999 6.11403 10.1897C6.15199 9.38035 6.27878 8.83068 6.46706 8.34631C6.65704 7.8393 6.95584 7.38008 7.34243 7.001C7.72178 6.61474 8.18091 6.31599 8.68774 6.12563C9.17211 5.93735 9.72178 5.81056 10.5311 5.7726C11.3404 5.73692 11.5978 5.72705 13.6605 5.72705ZM13.6605 9.52308C12.6538 9.52308 11.6882 9.92301 10.9763 10.6349C10.2644 11.3468 9.86451 12.3123 9.86451 13.3191C9.86451 14.3259 10.2644 15.2914 10.9763 16.0033C11.6882 16.7152 12.6538 17.1151 13.6605 17.1151C14.6673 17.1151 15.6328 16.7152 16.3447 16.0033C17.0566 15.2914 17.4566 14.3259 17.4566 13.3191C17.4566 12.3123 17.0566 11.3468 16.3447 10.6349C15.6328 9.92301 14.6673 9.52308 13.6605 9.52308ZM18.5954 9.33327C18.5954 9.08158 18.4954 8.8402 18.3174 8.66223C18.1394 8.48425 17.898 8.38427 17.6464 8.38427C17.3947 8.38427 17.1533 8.48425 16.9753 8.66223C16.7973 8.8402 16.6974 9.08158 16.6974 9.33327C16.6974 9.58497 16.7973 9.82635 16.9753 10.0043C17.1533 10.1823 17.3947 10.2823 17.6464 10.2823C17.898 10.2823 18.1394 10.1823 18.3174 10.0043C18.4954 9.82635 18.5954 9.58497 18.5954 9.33327ZM13.6605 11.0415C14.2646 11.0415 14.8439 11.2814 15.271 11.7086C15.6982 12.1357 15.9381 12.715 15.9381 13.3191C15.9381 13.9232 15.6982 14.5025 15.271 14.9296C14.8439 15.3568 14.2646 15.5967 13.6605 15.5967C13.0565 15.5967 12.4771 15.3568 12.05 14.9296C11.6229 14.5025 11.3829 13.9232 11.3829 13.3191C11.3829 12.715 11.6229 12.1357 12.05 11.7086C12.4771 11.2814 13.0565 11.0415 13.6605 11.0415Z" fill="#FCFFFE"/>
<defs>
<linearGradient id="paint0_linear_1_439" x1="13.6608" y1="0.0297852" x2="13.6608" y2="26.9699" gradientUnits="userSpaceOnUse">
<stop stop-color="#0CD8AE"/>
<stop offset="1" stop-color="#0CD845"/>
</linearGradient>
</defs>
</svg>
