<svg width="33" height="33" viewBox="0 0 33 33" fill="none" xmlns="http://www.w3.org/2000/svg">
<path d="M16.7534 2.25977C13.8371 2.26321 11.0412 3.42324 8.97905 5.48539C6.9169 7.54755 5.75687 10.3434 5.75343 13.2598C5.74994 15.643 6.52841 17.9615 7.96943 19.8598C7.96943 19.8598 8.26943 20.2548 8.31843 20.3118L16.7534 30.2598L25.1924 20.3068C25.2364 20.2538 25.5374 19.8598 25.5374 19.8598L25.5384 19.8568C26.9787 17.9594 27.7568 15.6419 27.7534 13.2598C27.75 10.3434 26.59 7.54755 24.5278 5.48539C22.4656 3.42324 19.6698 2.26321 16.7534 2.25977ZM16.7534 17.2598C15.9623 17.2598 15.1889 17.0252 14.5311 16.5856C13.8734 16.1461 13.3607 15.5214 13.0579 14.7905C12.7552 14.0596 12.6759 13.2553 12.8303 12.4794C12.9846 11.7035 13.3656 10.9907 13.925 10.4313C14.4844 9.87193 15.1971 9.49096 15.9731 9.33662C16.749 9.18228 17.5533 9.2615 18.2842 9.56425C19.0151 9.867 19.6398 10.3797 20.0793 11.0375C20.5188 11.6953 20.7534 12.4686 20.7534 13.2598C20.7521 14.3202 20.3303 15.3369 19.5804 16.0867C18.8305 16.8366 17.8139 17.2584 16.7534 17.2598Z" fill="url(#paint0_linear_1_406)"/>
<defs>
<linearGradient id="paint0_linear_1_406" x1="16.7534" y1="2.25977" x2="16.7534" y2="30.2598" gradientUnits="userSpaceOnUse">
<stop stop-color="#0CD8AE"/>
<stop offset="1" stop-color="#0CD845"/>
</linearGradient>
</defs>
</svg>
