<svg width="150" height="49" viewBox="0 0 150 49" fill="none" xmlns="http://www.w3.org/2000/svg">
<path d="M44.0865 36.0238C42.7438 36.0238 41.5294 35.698 40.4434 35.0464C39.3574 34.375 38.5083 33.4963 37.8962 32.4103C37.2841 31.3045 36.978 30.1099 36.978 28.8265C36.978 27.5627 37.2841 26.3879 37.8962 25.3018C38.5281 24.2158 39.3771 23.3569 40.4434 22.725C41.5294 22.0734 42.7339 21.7476 44.0569 21.7476C45.3601 21.7476 46.5448 22.0734 47.6111 22.725C48.6971 23.3569 49.5462 24.2158 50.1583 25.3018C50.7704 26.3879 51.0765 27.5627 51.0765 28.8265C51.0765 30.1494 50.7803 31.3638 50.1879 32.4695C49.5955 33.5556 48.7662 34.4244 47.7 35.076C46.6534 35.7078 45.4489 36.0238 44.0865 36.0238ZM44.0865 35.1944C45.212 35.1944 46.2388 34.9081 47.1668 34.3355C48.0949 33.7629 48.8156 33.0027 49.329 32.0549C49.8621 31.0873 50.1287 30.0309 50.1287 28.8857C50.1287 27.7602 49.8621 26.7137 49.329 25.7461C48.7958 24.7786 48.0652 24.0085 47.1372 23.4359C46.2092 22.8632 45.1824 22.5769 44.0569 22.5769C42.9314 22.5769 41.8947 22.8731 40.9469 23.4655C40.0189 24.0381 39.2784 24.8082 38.7255 25.7757C38.1924 26.7433 37.9258 27.7898 37.9258 28.9153C37.9258 30.0408 38.1924 31.0873 38.7255 32.0549C39.2784 33.0027 40.0189 33.7629 40.9469 34.3355C41.8947 34.9081 42.9412 35.1944 44.0865 35.1944Z" fill="#FCFFFE"/>
<path d="M55.2242 22.2215H56.172V25.1834C56.6064 24.1961 57.3469 23.4063 58.3934 22.8139C59.4399 22.2018 60.5951 21.8957 61.8588 21.8957C63.4977 21.8957 64.791 22.419 65.7388 23.4655C66.7064 24.4923 67.1901 25.9337 67.1901 27.7898V35.5499H66.2423V27.7898C66.2423 26.1904 65.8474 24.9464 65.0576 24.0579C64.2875 23.1693 63.2015 22.725 61.7995 22.725C60.7728 22.725 59.825 22.962 58.9562 23.4359C58.1071 23.89 57.4259 24.5219 56.9125 25.3315C56.4188 26.141 56.172 27.0592 56.172 28.086V35.5499H55.2242V22.2215Z" fill="#FCFFFE"/>
<path d="M75.6395 35.8757C74.6917 35.8757 73.8525 35.7177 73.1219 35.4018C72.3914 35.0661 71.8681 34.6416 71.5522 34.1282V32.5584C71.9273 33.4075 72.4407 34.0393 73.0923 34.454C73.7439 34.8489 74.5733 35.0464 75.5803 35.0464C76.5478 35.0464 77.3278 34.7502 77.9202 34.1578C78.5125 33.5457 78.8087 32.7657 78.8087 31.8179C78.8087 31.0084 78.6409 30.3864 78.3052 29.952C77.9695 29.4978 77.4265 29.0437 76.6762 28.5895L75.5507 27.9379C74.7411 27.4443 74.129 27.0592 73.7143 26.7828C73.3194 26.4866 73.0035 26.1608 72.7665 25.8054C72.5296 25.4302 72.4111 24.9958 72.4111 24.5021C72.4111 23.7123 72.6875 23.0805 73.2404 22.6066C73.7933 22.1327 74.514 21.8957 75.4026 21.8957C76.4886 21.8957 77.3969 22.1425 78.1275 22.6362V23.9394C77.5154 23.1298 76.6367 22.725 75.4914 22.725C74.8596 22.725 74.3462 22.883 73.9513 23.1989C73.5564 23.5149 73.3589 23.9196 73.3589 24.4133C73.3589 24.8477 73.4774 25.2327 73.7143 25.5684C73.9513 25.8843 74.2771 26.1805 74.6917 26.457C75.1261 26.7334 75.837 27.1481 76.8243 27.7009C77.8313 28.2736 78.5718 28.8659 79.0457 29.4781C79.5196 30.0704 79.7565 30.8504 79.7565 31.8179C79.7565 33.0422 79.3517 34.0295 78.5421 34.7798C77.7523 35.5104 76.7848 35.8757 75.6395 35.8757Z" fill="#FCFFFE"/>
<path d="M90.4683 35.8757C89.2045 35.8757 88.0297 35.5597 86.9436 34.9279C85.8576 34.296 84.9987 33.447 84.3668 32.3807C83.735 31.2947 83.419 30.1297 83.419 28.8857C83.419 27.6417 83.735 26.4866 84.3668 25.4203C84.9987 24.3343 85.8576 23.4754 86.9436 22.8435C88.0297 22.2116 89.2045 21.8957 90.4683 21.8957C91.7517 21.8957 92.9661 22.2413 94.1113 22.9324C95.2566 23.6037 96.0563 24.4824 96.5104 25.5684V22.2215H97.4582V35.5499H96.5104V32.2326C95.9773 33.3384 95.148 34.2269 94.0225 34.8983C92.9167 35.5499 91.732 35.8757 90.4683 35.8757ZM90.5275 35.0464C91.6135 35.0464 92.6205 34.7699 93.5486 34.217C94.4766 33.6444 95.2072 32.8941 95.7404 31.966C96.2932 31.0182 96.5697 29.9915 96.5697 28.8857C96.5697 27.7997 96.2932 26.7828 95.7404 25.835C95.1875 24.8872 94.447 24.1368 93.519 23.584C92.5909 23.0113 91.5839 22.725 90.4979 22.725C89.4119 22.725 88.395 23.0113 87.4472 23.584C86.5191 24.1566 85.7688 24.9168 85.1961 25.8646C84.6433 26.8124 84.3668 27.8293 84.3668 28.9153C84.3668 30.0013 84.6433 31.0182 85.1961 31.966C85.7688 32.8941 86.529 33.6444 87.4768 34.217C88.4246 34.7699 89.4415 35.0464 90.5275 35.0464Z" fill="#FCFFFE"/>
<path d="M107.742 35.8164C106.814 35.8164 105.965 35.6091 105.195 35.1944C104.425 34.76 103.813 34.1578 103.359 33.3877C102.905 32.6176 102.678 31.7587 102.678 30.8109V13.3359H103.625V30.8109C103.625 31.6007 103.803 32.3116 104.159 32.9434C104.534 33.5753 105.037 34.0788 105.669 34.454C106.301 34.8094 106.992 34.9871 107.742 34.9871V35.8164Z" fill="#FCFFFE"/>
<path d="M117.055 35.7276C115.594 35.7276 114.379 35.2833 113.412 34.3947C112.464 33.5062 111.99 32.282 111.99 30.722V16.8605H112.938V22.2215H117.025V23.0508H112.938V30.722C112.938 32.0253 113.323 33.052 114.093 33.8024C114.883 34.533 115.87 34.8983 117.055 34.8983V35.7276Z" fill="#FCFFFE"/>
<path d="M127.514 35.076C128.54 35.076 129.518 34.8094 130.446 34.2763C131.374 33.7431 132.144 33.0125 132.756 32.0845V33.595C132.026 34.4046 131.226 34.997 130.357 35.3722C129.488 35.7276 128.501 35.9053 127.395 35.9053C126.171 35.9053 125.016 35.5795 123.93 34.9279C122.864 34.2763 122.005 33.4075 121.353 32.3214C120.721 31.2354 120.405 30.0803 120.405 28.8561C120.405 27.5331 120.721 26.3484 121.353 25.3018C121.985 24.2356 122.844 23.4063 123.93 22.8139C125.036 22.2215 126.26 21.9253 127.603 21.9253C129.656 21.9253 131.404 22.7349 132.845 24.354L123.545 33.5358C124.196 34.0689 124.828 34.4639 125.44 34.7206C126.052 34.9575 126.744 35.076 127.514 35.076ZM121.353 28.7672C121.353 30.4061 121.896 31.8081 122.982 32.9731L131.66 24.354C131.009 23.7814 130.377 23.3766 129.765 23.1397C129.153 22.883 128.422 22.7546 127.573 22.7546C126.368 22.7546 125.292 23.0212 124.344 23.5543C123.416 24.0677 122.686 24.7786 122.153 25.6869C121.62 26.5952 121.353 27.622 121.353 28.7672Z" fill="#FCFFFE"/>
<path d="M146.099 35.5499L141.242 28.2341L136.443 35.5499H135.496L140.679 27.6713L137.065 22.2215H138.161L141.212 26.842L144.233 22.2215H145.181L141.775 27.4048L147.195 35.5499H146.099Z" fill="#FCFFFE"/>
<path fill-rule="evenodd" clip-rule="evenodd" d="M104.784 36.1323L104.775 36.127C103.837 35.5979 103.087 34.8591 102.537 33.9268C101.979 32.9797 101.706 31.9287 101.706 30.7993V12.2402H104.822V30.7993C104.822 31.4151 104.957 31.9366 105.21 32.3894C105.489 32.8564 105.857 33.224 106.324 33.5036C106.785 33.7605 107.288 33.8914 107.855 33.8914H108.939V36.8889H107.855C106.759 36.8889 105.731 36.6422 104.794 36.1373L104.784 36.1323ZM39.9919 35.9606L39.9858 35.9568C38.748 35.1917 37.7684 34.1804 37.0642 32.931L37.0622 32.9273L37.0601 32.9237C36.3576 31.6547 36.0063 30.279 36.0063 28.8148C36.0063 27.3673 36.3592 26.0087 37.0642 24.7579L37.0678 24.7515L37.0716 24.745C37.7946 23.5024 38.7742 22.5096 40.0006 21.7823C41.2621 21.026 42.66 20.6519 44.1693 20.6519C45.659 20.6519 47.0374 21.0262 48.2787 21.7822C49.5253 22.5098 50.5094 23.5059 51.2151 24.7579C51.9201 26.0087 52.2729 27.3673 52.2729 28.8148C52.2729 30.3063 51.9373 31.698 51.2559 32.9698L51.254 32.9734L51.252 32.977C50.5677 34.2316 49.6043 35.2397 48.3776 35.9894L48.3752 35.9909L48.3727 35.9924C47.1382 36.7377 45.7356 37.0962 44.1989 37.0962C42.672 37.0962 41.2628 36.7232 39.998 35.9643L39.9919 35.9606ZM39.7833 26.2947C40.2479 25.4843 40.8605 24.8504 41.6286 24.3765L41.6312 24.3748L41.6339 24.3732C42.4081 23.8893 43.2454 23.6494 44.1693 23.6494C45.1005 23.6494 45.9291 23.8833 46.6803 24.3468C47.4472 24.82 48.0477 25.4516 48.4919 26.2577C48.935 27.0619 49.157 27.9279 49.157 28.8741C49.157 29.8433 48.9334 30.7188 48.4919 31.5201L48.49 31.5235L48.4882 31.5269C48.0661 32.306 47.4787 32.927 46.71 33.4013C45.9587 33.8648 45.1301 34.0987 44.1989 34.0987C43.246 34.0987 42.3959 33.8637 41.6244 33.3987C40.8544 32.9227 40.2432 32.2967 39.781 31.5085C39.3421 30.7076 39.1223 29.8453 39.1223 28.9037C39.1223 27.9604 39.3429 27.0968 39.7833 26.2947ZM57.3685 22.2394V21.1258H54.2526V36.6223H57.3685V28.0744C57.3685 27.2332 57.5673 26.5159 57.9456 25.8923C58.3577 25.2453 58.8977 24.745 59.5799 24.3802L59.5838 24.3781L59.5877 24.376C60.2912 23.9922 61.0595 23.7975 61.9119 23.7975C63.0659 23.7975 63.8264 24.1512 64.3508 24.7562L64.3552 24.7614L64.3597 24.7665C64.92 25.3967 65.2707 26.3515 65.2707 27.7782V36.6223H68.3866V27.7782C68.3866 25.7396 67.8532 24.0024 66.6476 22.7183C65.4613 21.413 63.8584 20.8 61.9712 20.8C60.5262 20.8 59.1831 21.1518 57.9651 21.8627C57.7571 21.9806 57.5582 22.1062 57.3685 22.2394ZM72.7929 36.3803L72.7817 36.3752C71.9202 35.9794 71.2013 35.4322 70.7413 34.6847L70.5805 34.4234V32.5468L72.6562 32.1086C72.9602 32.7967 73.3435 33.2426 73.7767 33.5213C74.2121 33.7821 74.8284 33.9507 75.6927 33.9507C76.4167 33.9507 76.903 33.7394 77.2598 33.3858C77.6298 33.0003 77.837 32.5034 77.837 31.8063C77.837 31.1273 77.6936 30.7764 77.5598 30.6032L77.5527 30.594L77.5458 30.5847C77.3285 30.2907 76.9198 29.9255 76.236 29.5106L75.1092 28.8583L75.0987 28.8519C74.2856 28.3561 73.6586 27.962 73.2254 27.6732L73.2003 27.6565L73.1763 27.6384C72.6981 27.2798 72.2917 26.8673 71.9769 26.3951L71.9695 26.3839L71.9623 26.3726C71.6039 25.8051 71.4394 25.1653 71.4394 24.4905C71.4394 23.4145 71.8321 22.4706 72.6473 21.7718C73.4375 21.0946 74.427 20.8 75.515 20.8C76.7668 20.8 77.8993 21.086 78.8468 21.7263L79.324 22.0487V27.159L77.3752 24.5816C76.9963 24.0805 76.4592 23.7975 75.6038 23.7975C75.1553 23.7975 74.8997 23.9068 74.7409 24.0338C74.5958 24.1499 74.5554 24.2466 74.5554 24.4017C74.5554 24.6195 74.609 24.7805 74.7041 24.9197C74.8497 25.11 75.0709 25.3191 75.3961 25.5371C75.8042 25.7962 76.4891 26.1962 77.4664 26.7435L77.4695 26.7452L77.4725 26.7469C78.5449 27.3567 79.4163 28.0318 80.0101 28.7961C80.6719 29.6272 80.953 30.6646 80.953 31.8063C80.953 33.2958 80.4478 34.5842 79.3915 35.5633L79.3907 35.564C78.3868 36.4926 77.1508 36.9481 75.7519 36.9481C74.6839 36.9481 73.6939 36.77 72.8041 36.3852L72.7929 36.3803ZM94.6878 35.8191L94.6853 35.8206C93.4155 36.5689 92.0411 36.9481 90.5807 36.9481C89.1266 36.9481 87.7634 36.582 86.5109 35.8533C85.2673 35.1298 84.2741 34.1493 83.5466 32.9217L83.5444 32.918L83.5422 32.9142C82.815 31.6644 82.4474 30.3116 82.4474 28.8741C82.4474 27.4377 82.8145 26.0928 83.5445 24.8596C84.2706 23.6131 85.2638 22.6204 86.5109 21.8949C87.7634 21.1661 89.1266 20.8 90.5807 20.8C92.0678 20.8 93.4727 21.2027 94.7779 21.989C95.046 22.1464 95.2999 22.3152 95.5388 22.4954V21.1258H98.6547V36.6223H95.5388V35.2378C95.273 35.4456 94.99 35.6389 94.6902 35.8177L94.6878 35.8191ZM86.2407 26.4065C85.7863 27.1882 85.5633 28.0145 85.5633 28.9037C85.5633 29.7913 85.7855 30.6161 86.2382 31.3965C86.7166 32.168 87.3471 32.7911 88.1425 33.2732C88.9243 33.7276 89.7506 33.9507 90.6399 33.9507C91.5289 33.9507 92.3417 33.7278 93.0989 33.2784C93.873 32.7992 94.4726 32.1806 94.9128 31.4144L94.9145 31.4113L94.9164 31.4082C95.3717 30.6275 95.598 29.7894 95.598 28.8741C95.598 27.9821 95.3736 27.1534 94.9164 26.3696C94.4545 25.5778 93.8443 24.961 93.0765 24.5037L93.0693 24.4994L93.0621 24.4949C92.3044 24.0274 91.4944 23.7975 90.6103 23.7975C89.7276 23.7975 88.9054 24.0268 88.1245 24.4976C87.3497 24.9766 86.7242 25.6086 86.2407 26.4065ZM118.251 36.8H117.167C115.467 36.8 113.981 36.275 112.791 35.1816L112.787 35.1778L112.783 35.174C111.573 34.0399 111.018 32.505 111.018 30.7104V15.7648H114.134V21.1258H118.222V24.1233H114.134V30.7104C114.134 31.7808 114.441 32.5009 114.952 33.0046C115.519 33.5243 116.231 33.8026 117.167 33.8026H118.251V36.8ZM133.953 28.4603V34.0003L133.673 34.3097C132.854 35.2173 131.931 35.9102 130.899 36.3558L130.89 36.3599L130.88 36.3639C129.86 36.7812 128.73 36.9777 127.508 36.9777C126.08 36.9777 124.733 36.5949 123.484 35.8458L123.481 35.8436L123.477 35.8413C122.259 35.0972 121.276 34.1015 120.536 32.8676L120.532 32.8613L120.528 32.855C119.803 31.608 119.434 30.2654 119.434 28.8444C119.434 27.3425 119.794 25.9625 120.535 24.7341C121.266 23.502 122.267 22.5359 123.523 21.8506L123.527 21.8486L123.53 21.8467C124.805 21.164 126.207 20.8296 127.715 20.8296C130.097 20.8296 132.133 21.7859 133.767 23.6216L134.452 24.3906L125.338 33.3882C125.553 33.5146 125.759 33.6191 125.958 33.7033C126.423 33.881 126.974 33.9803 127.626 33.9803C128.455 33.9803 129.247 33.7675 130.018 33.3246C130.794 32.8791 131.441 32.2684 131.964 31.476L133.953 28.4603ZM130.12 24.4563L123.21 31.3191C122.769 30.5681 122.549 29.7206 122.549 28.7556C122.549 27.7859 122.773 26.9515 123.2 26.224C123.634 25.4846 124.222 24.9113 124.982 24.4913L124.985 24.4895L124.988 24.4876C125.757 24.0553 126.647 23.8271 127.685 23.8271C128.429 23.8271 129.01 23.94 129.458 24.1278L129.472 24.1336L129.486 24.139C129.685 24.2163 129.897 24.3209 130.12 24.4563ZM145.63 36.6223L141.36 30.1907L137.141 36.6223H133.597L139.492 27.662L135.158 21.1258H138.857L141.32 24.8562L143.759 21.1258H147.303L143.187 27.3894L149.331 36.6223H145.63Z" fill="#FCFFFE"/>
<path d="M0.0424805 26.2636C1.3679 18.0554 7.75734 11.658 15.7156 10.7437V17.4669C10.2717 18.448 6.12889 23.4311 6.12889 29.4307C6.12889 31.9618 6.86619 34.3119 8.12744 36.257C3.23054 35.6415 0.624694 30.2993 0.0424805 26.2636Z" fill="url(#paint0_linear_80_51)"/>
<path d="M0.422202 34.4031C2.49726 42.3727 9.4389 48.2301 17.6826 48.2301C25.0801 48.2301 31.4291 43.5137 34.1541 36.7869H26.8742C24.7633 39.6939 21.4315 41.5697 17.6826 41.5697C14.5177 41.5697 11.7038 40.7438 9.61704 38.5779C8.27815 38.7301 7.81831 38.6651 6.83653 38.5779C3.74199 38.3032 2.35019 36.9002 0.422202 34.4031Z" fill="url(#paint1_linear_80_51)"/>
<path d="M26.8742 22.0746C24.823 19.2497 21.6189 17.3986 17.9996 17.2962V10.6343C25.2611 10.7668 31.4681 15.444 34.1541 22.0746H26.8742Z" fill="url(#paint2_linear_80_51)"/>
<defs>
<linearGradient id="paint0_linear_80_51" x1="17.0983" y1="10.6343" x2="17.0983" y2="48.2301" gradientUnits="userSpaceOnUse">
<stop stop-color="#0CD8AE"/>
<stop offset="1" stop-color="#0CD845"/>
</linearGradient>
<linearGradient id="paint1_linear_80_51" x1="17.0983" y1="10.6343" x2="17.0983" y2="48.2301" gradientUnits="userSpaceOnUse">
<stop stop-color="#0CD8AE"/>
<stop offset="1" stop-color="#0CD845"/>
</linearGradient>
<linearGradient id="paint2_linear_80_51" x1="17.0983" y1="10.6343" x2="17.0983" y2="48.2301" gradientUnits="userSpaceOnUse">
<stop stop-color="#0CD8AE"/>
<stop offset="1" stop-color="#0CD845"/>
</linearGradient>
</defs>
</svg>
