<svg width="127" height="126" viewBox="0 0 127 126" fill="none" xmlns="http://www.w3.org/2000/svg">
<g filter="url(#filter0_b_1_119)">
<circle cx="63.5" cy="63" r="50" fill="#FCFFFE" fill-opacity="0.12"/>
</g>
<g clip-path="url(#clip0_1_119)">
<path fill-rule="evenodd" clip-rule="evenodd" d="M82.0437 38.8372C75.6579 40.1808 70.4104 41.3008 70.3826 41.3261C70.3547 41.3516 71.8672 42.908 73.7435 44.7852L77.155 48.198L73.7151 51.6366C71.8231 53.5279 70.2987 55.0989 70.3275 55.1278C70.3564 55.1566 75.5786 54.1088 81.9325 52.7994L93.4851 50.4188L90.039 46.9707L86.5928 43.5227L90.1535 39.9826C92.112 38.0356 93.7008 36.4317 93.6842 36.4186C93.6678 36.4054 88.4295 37.4937 82.0437 38.8372ZM56.2388 40.0032L52.7119 43.5313L57.4067 48.2251L62.1013 52.9188L65.6556 49.3633L69.2099 45.8078L64.5444 41.1413C61.9785 38.5749 59.8535 36.475 59.8224 36.475C59.7912 36.475 58.1786 38.0627 56.2388 40.0032ZM46.1436 50.1132C43.8488 52.42 41.7446 54.6075 41.4681 54.9741C36.4057 61.684 35.5233 70.3469 39.148 77.7508C44.3753 88.4278 57.184 92.9034 67.9093 87.8002C70.885 86.3844 71.9725 85.5063 77.0436 80.4247L80.9874 76.4726L76.2979 71.7831L71.6084 67.0936L67.7432 70.9278C64.745 73.9019 63.6909 74.8776 63.0446 75.2776C59.6773 77.3614 55.4295 76.8631 52.6948 74.0633C51.0152 72.344 50.3176 70.6126 50.3302 68.1957C50.3456 65.2964 50.9395 64.1947 54.3389 60.7611C55.6145 59.4726 57.3564 57.7049 58.2097 56.8328L59.7613 55.2472L55.0982 50.5831C52.5335 48.0179 50.4083 45.919 50.3758 45.919C50.3431 45.919 48.4386 47.8064 46.1436 50.1132ZM77.46 61.2244L73.9331 64.7525L78.6279 69.4463L83.3225 74.14L86.8768 70.5845L90.4311 67.029L85.7656 62.3625C83.1997 59.7961 81.0747 57.6962 81.0436 57.6962C81.0124 57.6962 79.3998 59.2839 77.46 61.2244Z" fill="#FCFFFE" fill-opacity="0.8"/>
</g>
<defs>
<filter id="filter0_b_1_119" x="2.5" y="2" width="122" height="122" filterUnits="userSpaceOnUse" color-interpolation-filters="sRGB">
<feFlood flood-opacity="0" result="BackgroundImageFix"/>
<feGaussianBlur in="BackgroundImageFix" stdDeviation="5.5"/>
<feComposite in2="SourceAlpha" operator="in" result="effect1_backgroundBlur_1_119"/>
<feBlend mode="normal" in="SourceGraphic" in2="effect1_backgroundBlur_1_119" result="shape"/>
</filter>
<clipPath id="clip0_1_119">
<rect width="59.8488" height="59.8488" fill="white" transform="translate(33.8357 33.04)"/>
</clipPath>
</defs>
</svg>
