<svg width="33" height="33" viewBox="0 0 33 33" fill="none" xmlns="http://www.w3.org/2000/svg">
<path d="M29.3612 12.346V23.7492C29.3612 24.8101 28.9398 25.8275 28.1897 26.5776C27.4395 27.3278 26.4221 27.7492 25.3612 27.7492H7.76123C6.70036 27.7492 5.68295 27.3278 4.9328 26.5776C4.18266 25.8275 3.76123 24.8101 3.76123 23.7492V12.346L16.1548 19.6388C16.278 19.7114 16.4183 19.7497 16.5612 19.7497C16.7042 19.7497 16.8445 19.7114 16.9676 19.6388L29.3612 12.346ZM25.3612 6.94922C26.3455 6.94906 27.2952 7.31179 28.0288 7.968C28.7623 8.62422 29.2282 9.52784 29.3372 10.506L16.5612 18.0212L3.78523 10.506C3.89428 9.52784 4.36015 8.62422 5.0937 7.968C5.82726 7.31179 6.777 6.94906 7.76123 6.94922H25.3612Z" fill="url(#paint0_linear_1_411)"/>
<defs>
<linearGradient id="paint0_linear_1_411" x1="16.5612" y1="6.94922" x2="16.5612" y2="27.7492" gradientUnits="userSpaceOnUse">
<stop stop-color="#0CD8AE"/>
<stop offset="1" stop-color="#0CD845"/>
</linearGradient>
</defs>
</svg>
