<svg width="96" height="97" viewBox="0 0 96 97" fill="none" xmlns="http://www.w3.org/2000/svg">
<g filter="url(#filter0_d_1_179)">
<circle cx="48.0007" cy="36.6775" r="20.99" fill="#FCFFFE"/>
</g>
<path fill-rule="evenodd" clip-rule="evenodd" d="M45.9413 9.70087C39.0446 10.4089 33.5013 12.969 28.8984 17.572C22.4086 24.0617 19.7058 33.1577 21.5587 42.2719C21.8705 43.8063 22.6514 46.2435 23.2674 47.6054C28.5879 59.3694 40.9452 65.6888 53.5983 63.1164C63.8956 61.023 72.3495 52.5692 74.4428 42.2719C75.0043 39.5104 75.1777 35.6758 74.8465 33.3475C73.0857 20.9694 64.0568 11.7832 51.8029 9.90227C50.7401 9.7391 46.8654 9.60603 45.9413 9.70087ZM51.4681 31.1824C56.6475 34.1739 60.8851 36.6453 60.8851 36.6743C60.8851 36.7185 43.5757 46.7516 41.3294 48.0095L40.6077 48.4137V36.6743V24.9349L41.3294 25.3391C41.7263 25.5613 46.2887 28.1908 51.4681 31.1824Z" fill="url(#paint0_linear_1_179)"/>
<defs>
<filter id="filter0_d_1_179" x="0.0107422" y="0.6875" width="95.98" height="95.98" filterUnits="userSpaceOnUse" color-interpolation-filters="sRGB">
<feFlood flood-opacity="0" result="BackgroundImageFix"/>
<feColorMatrix in="SourceAlpha" type="matrix" values="0 0 0 0 0 0 0 0 0 0 0 0 0 0 0 0 0 0 127 0" result="hardAlpha"/>
<feOffset dy="12"/>
<feGaussianBlur stdDeviation="13.5"/>
<feComposite in2="hardAlpha" operator="out"/>
<feColorMatrix type="matrix" values="0 0 0 0 0.0509804 0 0 0 0 0.85098 0 0 0 0 0.545098 0 0 0 1 0"/>
<feBlend mode="normal" in2="BackgroundImageFix" result="effect1_dropShadow_1_179"/>
<feBlend mode="normal" in="SourceGraphic" in2="effect1_dropShadow_1_179" result="shape"/>
</filter>
<linearGradient id="paint0_linear_1_179" x1="48.0004" y1="9.66919" x2="48.0004" y2="63.6854" gradientUnits="userSpaceOnUse">
<stop stop-color="#0CD8AE"/>
<stop offset="1" stop-color="#0CD845"/>
</linearGradient>
</defs>
</svg>
