<svg width="28" height="27" viewBox="0 0 28 27" fill="none" xmlns="http://www.w3.org/2000/svg">
<rect x="0.589355" y="0.0297852" width="26.9401" height="26.9401" rx="13.47" fill="url(#paint0_linear_1_435)"/>
<path d="M19.7278 8.72795C19.6139 8.66907 19.5031 8.60453 19.3957 8.53457C19.0837 8.32823 18.7975 8.08513 18.5435 7.8105C17.9071 7.08268 17.6695 6.34437 17.5825 5.82792H17.5855C17.5128 5.39843 17.5428 5.12109 17.5481 5.12109H14.651V16.3217C14.651 16.4716 14.651 16.6208 14.645 16.7677C14.645 16.7857 14.6428 16.8022 14.642 16.8224C14.642 16.8299 14.642 16.8389 14.6398 16.8471V16.8539C14.6094 17.2557 14.4807 17.6438 14.265 17.9841C14.0493 18.3245 13.7533 18.6066 13.403 18.8057C13.0376 19.0136 12.6242 19.1227 12.2037 19.122C10.8545 19.122 9.76019 18.0217 9.76019 16.6627C9.76019 15.303 10.8545 14.2027 12.2037 14.2027C12.4593 14.2027 12.7134 14.2432 12.9563 14.3226L12.96 11.3724C12.2225 11.2772 11.4732 11.336 10.7595 11.545C10.0458 11.754 9.38322 12.1087 8.8135 12.5867C8.31419 13.0203 7.89439 13.5378 7.57299 14.1158C7.45081 14.3264 6.98909 15.1741 6.93362 16.5488C6.89839 17.3283 7.133 18.1379 7.24469 18.4714V18.4789C7.31439 18.6753 7.58723 19.3469 8.03097 19.9128C8.3888 20.367 8.81159 20.7661 9.28572 21.0971V21.0896L9.29247 21.0971C10.6941 22.049 12.2495 21.9868 12.2495 21.9868C12.5186 21.9756 13.4203 21.9868 14.4442 21.5019C15.5797 20.9637 16.2259 20.1624 16.2259 20.1624C16.6389 19.6835 16.9674 19.1378 17.1973 18.5486C17.4596 17.859 17.5466 17.033 17.5466 16.7032V10.76C17.5818 10.781 18.0503 11.0905 18.0503 11.0905C18.0503 11.0905 18.7249 11.523 19.7765 11.8041C20.5305 12.0043 21.5477 12.047 21.5477 12.047V9.17094C21.1917 9.20991 20.4683 9.09748 19.727 8.7287L19.7278 8.72795Z" fill="#FCFFFE"/>
<defs>
<linearGradient id="paint0_linear_1_435" x1="14.0594" y1="0.0297852" x2="14.0594" y2="26.9699" gradientUnits="userSpaceOnUse">
<stop stop-color="#0CD8AE"/>
<stop offset="1" stop-color="#0CD845"/>
</linearGradient>
</defs>
</svg>
