<svg width="28" height="27" viewBox="0 0 28 27" fill="none" xmlns="http://www.w3.org/2000/svg">
<rect x="0.491577" y="0.0297852" width="26.9401" height="26.9401" rx="13.47" fill="url(#paint0_linear_1_441)"/>
<path d="M13.9606 6.896C5.53155 6.896 5.38403 7.64559 5.38403 13.4999C5.38403 19.3543 5.53155 20.1039 13.9606 20.1039C22.3896 20.1039 22.5372 19.3543 22.5372 13.4999C22.5372 7.64559 22.3896 6.896 13.9606 6.896ZM16.7094 13.7864L12.8585 15.5841C12.5215 15.7401 12.2453 15.5652 12.2453 15.193V11.8069C12.2453 11.4356 12.5215 11.2598 12.8585 11.4158L16.7094 13.2135C17.0464 13.3713 17.0464 13.6286 16.7094 13.7864Z" fill="#FCFFFE"/>
<defs>
<linearGradient id="paint0_linear_1_441" x1="13.9616" y1="0.0297852" x2="13.9616" y2="26.9699" gradientUnits="userSpaceOnUse">
<stop stop-color="#0CD8AE"/>
<stop offset="1" stop-color="#0CD845"/>
</linearGradient>
</defs>
</svg>
